<svg width="25" height="25" viewBox="0 0 25 25" fill="none" xmlns="http://www.w3.org/2000/svg">
<path d="M22.2222 0H2.77778C1.25 0 0 1.25 0 2.77778V22.2222C0 23.75 1.25 25 2.77778 25H22.2222C23.75 25 25 23.75 25 22.2222V2.77778C25 1.25 23.75 0 22.2222 0ZM10.7083 18.4583C10.5798 18.5871 10.4272 18.6892 10.2592 18.7589C10.0912 18.8286 9.91107 18.8645 9.72917 18.8645C9.54727 18.8645 9.36715 18.8286 9.19913 18.7589C9.03111 18.6892 8.87849 18.5871 8.75 18.4583L3.76389 13.4722C3.6353 13.3436 3.5333 13.191 3.46371 13.023C3.39412 12.855 3.3583 12.6749 3.3583 12.4931C3.3583 12.3112 3.39412 12.1311 3.46371 11.9631C3.5333 11.7951 3.6353 11.6425 3.76389 11.5139C3.89247 11.3853 4.04513 11.2833 4.21313 11.2137C4.38114 11.1441 4.56121 11.1083 4.74306 11.1083C4.9249 11.1083 5.10497 11.1441 5.27298 11.2137C5.44098 11.2833 5.59364 11.3853 5.72222 11.5139L9.72222 15.5139L19.2778 5.95833C19.5375 5.69864 19.8897 5.55275 20.2569 5.55275C20.6242 5.55275 20.9764 5.69864 21.2361 5.95833C21.4958 6.21802 21.6417 6.57024 21.6417 6.9375C21.6417 7.30476 21.4958 7.65697 21.2361 7.91667L10.7083 18.4583Z" fill="#FF4D1B"/>
</svg>
