<svg width="26" height="35" viewBox="0 0 26 35" fill="none" xmlns="http://www.w3.org/2000/svg">
<mask id="mask0_117_627" style="mask-type:luminance" maskUnits="userSpaceOnUse" x="0" y="0" width="26" height="35">
<path d="M13 33.5C13 33.5 25 23.9 25 13.5C25 6.8728 19.6272 1.5 13 1.5C6.3728 1.5 1 6.8728 1 13.5C1 23.9 13 33.5 13 33.5Z" fill="white" stroke="white" stroke-width="2" stroke-linejoin="round"/>
<path d="M12.9997 18.3012C13.6301 18.3012 14.2543 18.177 14.8366 17.9358C15.419 17.6946 15.9481 17.341 16.3939 16.8953C16.8396 16.4496 17.1931 15.9204 17.4344 15.3381C17.6756 14.7557 17.7997 14.1315 17.7997 13.5012C17.7997 12.8708 17.6756 12.2467 17.4344 11.6643C17.1931 11.0819 16.8396 10.5528 16.3939 10.1071C15.9481 9.66134 15.419 9.30777 14.8366 9.06655C14.2543 8.82533 13.6301 8.70117 12.9997 8.70117C11.7267 8.70117 10.5058 9.20688 9.60562 10.1071C8.70545 11.0072 8.19974 12.2281 8.19974 13.5012C8.19974 14.7742 8.70545 15.9951 9.60562 16.8953C10.5058 17.7955 11.7267 18.3012 12.9997 18.3012Z" fill="black" stroke="black" stroke-width="2" stroke-linejoin="round"/>
</mask>
<g mask="url(#mask0_117_627)">
<path d="M-7 -0.902344H41V47.0977H-7V-0.902344Z" fill="#FF4D1B"/>
</g>
</svg>
