<svg width="236" height="60" viewBox="0 0 236 60" fill="none" xmlns="http://www.w3.org/2000/svg">
<path d="M90.9344 13.323C91.7137 13.323 93.3671 13.4268 94.3777 13.4268C95.3544 13.4268 97.1045 13.3598 97.8868 13.3598C98.5409 13.3598 98.9252 13.5199 98.9252 13.7803C98.9252 14.1094 98.3725 14.2683 98.0481 14.368C96.8151 14.7196 96.5222 14.8863 96.4617 16.3464C96.3579 17.5853 96.3911 21.6418 96.4231 23.0396C96.4231 23.2009 96.489 23.2674 96.6455 23.2674C96.8151 23.2674 97.1722 23.004 97.2071 22.9732C98.3073 22.1631 102.434 18.0686 103.994 16.1548C104.738 15.3091 104.773 14.7564 103.411 14.4273C103.021 14.3377 102.628 14.1669 102.628 13.9113C102.628 13.6504 102.883 13.4553 103.443 13.4553C104.095 13.4553 104.218 13.4553 104.811 13.4553C106.888 13.4553 109.061 13.2939 109.971 13.2939C110.589 13.2939 110.88 13.4262 110.88 13.6836C110.88 13.9392 110.423 14.2025 109.71 14.3377C107.831 14.69 106.689 15.6638 105.264 16.7995C104.021 17.778 101.491 20.1473 100.092 21.7094C100.001 21.8078 100.001 21.9365 100.066 22.0302C100.808 23.1725 106.17 29.3426 108.213 31.4877C109.26 32.5617 109.877 32.8197 111.305 33.1162C111.657 33.207 111.987 33.5355 111.987 33.6583C111.987 33.9898 111.4 34.1855 111.043 34.1855C110.168 34.1855 106.432 33.9216 105.521 33.9216C104.349 33.9216 103.57 33.9898 102.821 33.9898C102.306 33.9898 102.108 33.7348 102.108 33.4744C102.108 33.2775 102.369 33.1162 103.637 32.7213C103.765 32.6578 103.699 32.3678 103.637 32.264C102.627 30.868 99.3463 26.8073 97.8571 25.1865C97.0103 24.2103 96.8406 23.979 96.6455 23.979C96.4611 23.979 96.4231 24.1433 96.4231 24.7328C96.3911 27.2669 96.5222 30.317 96.5542 31.4883C96.5542 32.0719 96.8151 32.5623 98.2088 32.9199C98.7948 33.0806 99.1192 33.3072 99.1192 33.5711C99.1192 33.857 98.602 34.0539 98.0807 34.0539C97.3655 34.0539 95.0579 33.9904 94.0527 33.9904C93.0445 33.9904 91.4201 34.1167 90.3787 34.1167C89.9262 34.1167 89.501 33.857 89.501 33.6316C89.501 33.3398 89.7679 33.1738 90.4481 33.0172C92.0754 32.688 92.3921 32.1709 92.49 30.2589C92.5926 28.8913 92.5926 26.3886 92.5926 22.9109C92.5926 17.7466 92.5244 17.8433 92.4591 16.6726C92.4307 15.1437 92.1365 14.7861 90.897 14.4285C90.0573 14.2037 89.9559 13.9398 89.9559 13.7808C89.9565 13.4891 90.4487 13.323 90.9344 13.323Z" fill="#534741"/>
<path d="M129.026 13.4268C130.102 13.4268 131.433 13.2945 131.881 13.2329C132.014 13.1943 132.246 13.4268 132.275 13.6516C132.31 14.2322 132.31 16.4804 132.31 17.1275C132.31 17.5859 132.083 18.0408 131.789 18.0408C131.499 18.0408 131.234 17.5545 131.17 17.2235C130.746 15.404 129.835 14.9207 129.09 14.7861C128.472 14.6912 127.073 14.5637 124.581 14.5963C124.449 14.5963 124.185 14.7202 124.15 15.5066C124.082 16.3126 123.99 20.8335 124.019 22.6215C124.019 22.7146 124.15 22.9441 124.351 22.9441H126.953C129.258 22.9441 129.194 22.8083 129.808 21.382C130 20.8951 130.233 20.5434 130.519 20.5434C130.777 20.5434 130.877 21.0902 130.848 21.4461C130.777 22.3558 130.717 22.9435 130.717 23.6884C130.717 24.5667 130.777 25.0868 130.848 25.9005C130.878 26.4835 130.683 26.8737 130.422 26.8737C130.165 26.8737 129.906 26.4835 129.808 26.1638C129.38 24.7328 128.964 24.5057 127.693 24.4025C126.656 24.3094 125.452 24.3094 124.449 24.3094C124.313 24.3094 124.019 24.6332 124.019 24.6984C123.897 25.607 123.927 28.1369 123.96 29.2157C123.99 29.9914 123.96 31.1953 124.081 31.8827C124.185 32.1709 124.474 32.592 124.806 32.659C125.324 32.7509 126.332 32.8547 127.435 32.8547C128.405 32.8547 129.609 32.8547 130.422 32.5629C131.397 32.2029 132.274 31.4248 132.991 30.1575C133.445 29.3147 133.735 29.0206 133.999 29.0206C134.327 29.0206 134.293 29.6996 134.259 29.96C134.259 30.2197 133.311 33.2087 133.022 33.736C132.925 33.9607 132.403 34.1487 132.246 34.1487C131.881 34.1487 123.863 33.9904 121.422 33.9904C119.25 33.9904 118.892 34.1487 117.722 34.1487C117.101 34.1487 116.614 34.0544 116.614 33.736C116.614 33.4365 117.039 33.2081 117.59 33.0812C119.25 32.6886 119.671 32.3696 119.801 30.6135C119.896 29.2477 120.061 26.78 120.061 22.7484C120.061 18.9191 120.092 17.4186 120.026 16.481C119.963 15.3103 119.708 14.6562 118.302 14.4006C117.626 14.2695 117.267 14.142 117.267 13.8111C117.267 13.5205 117.815 13.3236 118.271 13.3236C119.801 13.3236 122.464 13.4274 124.15 13.4274H129.026V13.4268Z" fill="#534741"/>
<path d="M159.256 16.2817C161.011 17.9689 162.309 20.6988 162.309 23.3687C162.309 27.9791 159.419 31.2605 157.179 32.497C155.261 33.6019 152.532 34.2821 149.736 34.2821C148.406 34.2821 145.159 34.186 143.236 34.0888C142.264 34.0538 141.549 34.0538 141.036 34.0538C140.315 34.0538 139.955 33.7934 139.955 33.5361C139.955 33.2775 140.414 33.0486 140.799 32.981C142.787 32.7212 142.976 32.264 143.078 29.3135C143.144 27.5243 143.171 26.2261 143.144 24.8282C143.144 23.1386 143.171 19.5014 143.047 17.3279C142.917 15.2759 142.853 14.7202 141.063 14.464C140.703 14.3999 140.286 14.1414 140.286 13.9124C140.286 13.6515 140.668 13.4273 141.16 13.4273H142.852C144.445 13.4273 148.177 13.1664 150.584 13.1664C155.102 13.1658 157.989 15.0849 159.256 16.2817ZM147.436 14.6555C147.239 14.7854 147.17 14.9497 147.17 15.114C147.109 15.8909 147.042 17.9689 147.042 20.8322V25.5417C147.042 27.7822 147.073 29.4422 147.17 30.8673C147.239 31.6555 147.529 32.0072 147.821 32.2972C148.337 32.7497 149.547 33.1725 149.998 33.1725C151.324 33.1725 153.087 32.7497 154.868 31.2599C156.853 29.6041 157.895 26.4514 157.895 23.3681C157.895 21.0896 156.952 18.2993 155.299 16.6097C153.861 15.1424 151.392 14.3003 149.122 14.3003C148.336 14.3009 147.849 14.4278 147.436 14.6555Z" fill="#534741"/>
<path d="M171.519 16.8677C171.428 15.3097 171.428 14.8234 169.834 14.4279C169.055 14.2316 168.861 14.0103 168.861 13.7802C168.861 13.5199 169.318 13.323 169.896 13.323C170.836 13.323 172.533 13.4268 173.598 13.4268C175.192 13.4268 176.326 13.323 177.469 13.323C178.023 13.323 178.471 13.4564 178.471 13.7802C178.471 14.0756 178.023 14.3383 177.469 14.4279C175.839 14.7196 175.747 15.563 175.676 16.4164C175.587 17.2223 175.549 18.3616 175.549 23.95C175.549 27.8784 175.587 29.2738 175.649 30.2583C175.78 32.1703 175.97 32.5617 177.796 33.0486C178.376 33.1732 178.699 33.4074 178.699 33.7354C178.699 34.0538 178.085 34.1481 177.694 34.1481C176.391 34.1481 174.189 33.9601 172.821 33.9898C171.881 33.9898 170.911 34.0882 169.705 34.0882C168.922 34.0882 168.697 33.8564 168.697 33.5355C168.697 33.3066 168.988 33.0795 169.67 32.9193C171.164 32.5611 171.395 31.8815 171.454 30.4848C171.561 29.2465 171.622 25.9005 171.622 23.1381C171.623 21.4852 171.623 18.1018 171.519 16.8677Z" fill="#534741"/>
<path d="M185.081 13.2945C185.798 13.2945 188.365 13.4268 190.022 13.4268C190.183 13.4268 190.633 13.7476 190.734 13.8502C191.221 14.4279 192.13 15.4366 193.465 16.9976C195.055 18.9499 201.417 25.5417 203.145 27.3624C203.306 27.5249 203.434 27.2355 203.434 27.1661C203.604 26.2261 203.5 22.5533 203.5 19.8229C203.5 18.7216 203.404 17.1909 203.305 16.347C203.244 15.6988 202.919 14.9503 201.295 14.5311C200.641 14.3686 200.221 14.1681 200.221 13.7802C200.221 13.5478 200.579 13.3918 201.162 13.3918C201.978 13.3918 202.721 13.4274 203.374 13.4274C204.927 13.4274 206.26 13.2601 207.106 13.2601C207.659 13.2601 207.883 13.4564 207.883 13.6842C207.883 13.8787 207.659 14.1675 207.078 14.3383C205.383 14.8863 205.223 15.474 205.061 16.7692C204.96 17.9417 204.739 26.1638 204.739 28.9204C204.739 30.2879 204.927 33.1459 204.927 33.9904C204.927 34.2822 204.575 34.6042 204.405 34.6042C203.727 34.6042 202.951 33.7632 202.656 33.3701C202.04 32.5623 201.417 31.8127 200.543 30.7446C197.49 27.0066 192.194 21.4111 189.302 18.0075C189.141 17.8124 188.944 18.0692 188.944 18.1677C188.879 19.0406 188.813 19.7879 188.779 22.3558C188.747 26.8737 188.689 29.3432 188.849 30.9367C188.979 31.9734 189.335 32.5249 190.895 33.0166C191.577 33.2076 191.806 33.4359 191.806 33.631C191.806 33.9898 191.353 34.1161 190.732 34.1161C189.79 34.1161 189.046 33.9898 187.904 33.9898C187.192 33.9898 185.372 34.0882 184.82 34.0882C184.359 34.0882 183.976 33.9216 183.976 33.6583C183.976 33.3386 184.359 33.1726 184.687 33.0795C186.183 32.6287 186.967 32.3678 187.06 29.9262C187.224 26.283 187.646 20.0459 187.646 17.708C187.646 16.4158 187.544 16.0226 187.455 15.8903C186.862 15.1739 186.637 14.719 184.95 14.3377C184.587 14.2677 184.104 14.0103 184.104 13.7796C184.107 13.5199 184.493 13.2945 185.081 13.2945Z" fill="#534741"/>
<path d="M231.618 13.5478C232.144 13.6842 232.792 13.7802 233.086 13.8105C233.214 13.8105 233.438 14.1094 233.475 14.5631C233.509 15.506 233.964 17.1618 233.964 18.4624C233.964 18.8799 233.77 19.2731 233.41 19.2731C233.247 19.2731 232.987 18.9185 232.792 18.4239C232.561 17.8124 232.043 16.7692 231.555 16.156C230.843 15.3103 228.959 13.9398 226.363 13.9398C221.452 13.9398 218.567 18.3307 218.567 23.399C218.567 25.6751 218.986 27.6204 219.925 29.2471C221.325 31.748 223.89 33.475 226.777 33.475C227.171 33.475 228.116 33.3078 228.829 32.8203C229.22 32.5617 229.509 31.6561 229.509 30.5501C229.509 29.4096 229.477 28.0474 229.384 27.653C229.185 26.9063 228.924 26.2563 226.777 26.0612C226.296 26.0292 225.836 25.7368 225.836 25.445C225.836 25.2191 226.296 24.9878 226.944 24.9878C228.143 24.9878 229.964 25.1177 230.842 25.1177C231.617 25.1177 233.409 24.9291 234.609 24.9291C235.225 24.9291 235.488 25.1533 235.488 25.4148C235.488 25.6052 235.135 25.8993 234.742 26.028C233.634 26.3228 233.664 26.7106 233.604 27.1649C233.54 27.5569 233.436 29.8627 233.436 31.1935C233.436 31.6543 233.57 31.7747 233.963 32.1691C234.225 32.3672 234.319 32.4959 234.319 32.7206C234.319 32.8837 234.059 33.1447 233.832 33.2064C233.281 33.3683 232.175 33.6577 230.872 33.9204C229.477 34.2122 226.881 34.5686 226.064 34.5686C222.56 34.5686 219.307 33.5011 217.359 31.7463C215.866 30.3158 214.012 27.946 214.012 23.6564C214.012 20.343 215.376 17.7774 217.622 15.8245C219.665 14.0092 222.977 12.8705 226.324 12.8705C228.536 12.8717 230.356 13.2328 231.618 13.5478Z" fill="#534741"/>
<path fill-rule="evenodd" clip-rule="evenodd" d="M0 0H76.7058V38.3511H0V0Z" fill="#FFDB00"/>
<path d="M69.4894 4.01562V4.21726L69.4645 15.0358C69.0761 14.7108 68.7635 14.4653 68.4492 14.2411C68.0649 13.9766 67.6688 13.7577 67.068 13.4932C66.4494 13.221 65.7087 12.9927 64.8802 12.8409C64.0731 12.6891 63.1995 12.6197 62.3152 12.6197C60.6642 12.6197 59.1643 12.8557 57.8234 13.3509C56.479 13.8378 55.2899 14.5696 54.2657 15.5589C53.2368 16.5332 52.4593 17.6778 51.9581 18.9654C51.4392 20.2505 51.1794 21.6822 51.1794 23.2804C51.1794 24.8574 51.4392 26.2949 51.9581 27.5872C52.4593 28.8813 53.2368 30.0193 54.2657 31.0091C55.2899 31.9889 56.479 32.7296 57.8234 33.2272C59.1643 33.7081 60.6642 33.956 62.3152 33.956C63.2179 33.956 64.1158 33.9264 64.9478 33.8048C65.7989 33.6832 66.5841 33.4756 67.2655 33.1014C67.8526 32.7924 68.3069 32.455 68.7048 32.0606C68.9818 31.8038 69.2243 31.5168 69.4592 31.2037L69.4639 33.7449V33.9554H73.4546V4.01562H69.4894Z" fill="#534741"/>
<path fill-rule="evenodd" clip-rule="evenodd" d="M41.0769 20.7036C43.7136 24.0158 46.3462 27.3014 48.9705 30.5898C49.7788 31.6016 50.583 32.6139 51.3895 33.6281L51.6552 33.9572H46.5662L46.4921 33.8766L38.0606 23.3166C37.1467 24.1072 36.2293 24.8953 35.3177 25.6758C35.2881 25.7185 35.2572 25.744 35.224 25.7564V33.7467V33.9572H31.2446V4.01562H35.224V14.3075V20.5043L44.0819 12.8373H44.1584H50.1637L49.7533 13.1943C48.0785 14.6426 46.4079 16.0932 44.726 17.5414C43.5144 18.587 42.2974 19.6545 41.0769 20.7036Z" fill="#534741"/>
<path fill-rule="evenodd" clip-rule="evenodd" d="M62.3022 31.5606C59.7734 31.5606 57.7013 30.7973 56.1421 29.2921C54.58 27.7858 53.7871 25.7528 53.7871 23.2489C53.7871 20.7432 54.5788 18.7061 56.1409 17.1932C57.69 15.6744 59.7639 14.9028 62.3016 14.9028C64.8547 14.9028 66.9334 15.672 68.4789 17.1897C70.0416 18.7114 70.8351 20.751 70.8351 23.2489C70.8351 25.7451 70.0445 27.7781 68.4848 29.2909C66.9334 30.7967 64.8529 31.5606 62.3022 31.5606Z" fill="#E20015"/>
<path d="M62.3023 15.7343C64.6395 15.7343 66.5041 16.4158 67.8971 17.7828C69.2968 19.1462 70.0043 20.9681 70.0043 23.2489C70.0043 25.5221 69.3045 27.3387 67.9066 28.6938C66.5106 30.0477 64.6466 30.7286 62.3023 30.7286C59.9686 30.7286 58.1224 30.0477 56.7198 28.6938C55.3137 27.3381 54.6192 25.5215 54.6192 23.2489C54.6192 20.9681 55.3137 19.1527 56.7198 17.7905C58.1224 16.4158 59.9692 15.7343 62.3023 15.7343ZM62.3023 14.0714C59.5392 14.0714 57.2696 14.923 55.5563 16.6026C53.8334 18.2714 52.9563 20.5096 52.9563 23.2489C52.9563 25.9871 53.834 28.2217 55.5657 29.8912C57.2838 31.5499 59.5505 32.3921 62.3023 32.3921C65.0766 32.3921 67.3515 31.5493 69.0649 29.8876C70.7918 28.2122 71.6672 25.9788 71.6672 23.2489C71.6672 20.5179 70.7895 18.278 69.0572 16.5913C67.3557 14.9207 65.0813 14.0714 62.3023 14.0714Z" fill="#534741"/>
<path fill-rule="evenodd" clip-rule="evenodd" d="M26.2381 28.5787L21.9444 31.1585L17.6423 33.746V28.5787V23.3966L21.9444 25.9835L26.2381 28.5787Z" fill="#E20015"/>
<path fill-rule="evenodd" clip-rule="evenodd" d="M82.8037 33.9032C83.4033 33.9032 83.9388 34.1683 84.3397 34.5532C84.7353 34.9529 84.9915 35.4878 84.9915 36.0975C84.9915 36.6995 84.7353 37.2463 84.3397 37.6572C83.9388 38.0534 83.4033 38.2989 82.8037 38.2989C82.1905 38.2989 81.6402 38.0534 81.2493 37.6572C80.8437 37.2463 80.594 36.6995 80.594 36.0975C80.594 35.4878 80.8437 34.9523 81.2493 34.5532C81.6402 34.1683 82.1905 33.9032 82.8037 33.9032ZM82.8037 34.1683C82.2569 34.1683 81.7712 34.3782 81.4261 34.7258C81.0702 35.0668 80.8526 35.562 80.8526 36.0975C80.8526 36.6354 81.0702 37.1229 81.4261 37.4811C81.7712 37.8334 82.2569 38.0344 82.8037 38.0344C83.328 38.0344 83.8131 37.8334 84.1636 37.4811C84.5212 37.1229 84.7264 36.6354 84.7264 36.0975C84.7264 35.5626 84.5212 35.0674 84.1636 34.7258C83.8131 34.3782 83.328 34.1683 82.8037 34.1683ZM81.8531 37.216V34.9826H82.6234C82.8832 34.9826 83.0724 35.0087 83.1862 35.0454C83.3025 35.084 83.4051 35.1623 83.4792 35.2488C83.5421 35.358 83.5842 35.4742 83.5842 35.5904C83.5842 35.7464 83.5195 35.8917 83.4045 36.0014C83.2758 36.139 83.1311 36.2019 82.9312 36.2102C83.0178 36.2582 83.0819 36.2867 83.1311 36.343C83.2212 36.4344 83.328 36.5696 83.465 36.7819L83.7283 37.2154H83.2871L83.0913 36.8703C82.9306 36.5832 82.8132 36.4243 82.713 36.3442C82.6436 36.2956 82.5475 36.2701 82.42 36.2701H82.2118V37.2154L81.8531 37.216ZM82.2124 35.9599H82.6531C82.8595 35.9599 83.003 35.9326 83.0819 35.8745C83.1554 35.8016 83.2011 35.7251 83.2011 35.6325C83.2011 35.5626 83.1773 35.4878 83.1429 35.4481C83.1044 35.3858 83.0492 35.3532 82.9893 35.3194C82.9217 35.3034 82.8037 35.2856 82.6234 35.2856H82.213V35.9599H82.2124Z" fill="#534741"/>
<path d="M4.80539 48.4128H3.02979V59.8108H4.80539V48.4128Z" fill="#534741"/>
<path d="M15.3856 52.3063C15.1608 52.0074 14.8186 51.763 14.3721 51.581C13.9296 51.4013 13.4386 51.3099 12.9143 51.3099C11.8189 51.3099 10.9454 51.6877 10.3114 52.4332V51.4932H8.79199V59.8096H10.4549V55.2775C10.4549 54.2782 10.6672 53.5968 11.0865 53.2498C11.5088 52.897 12.0224 52.7184 12.6089 52.7184C12.9724 52.7184 13.2933 52.7973 13.5613 52.9515C13.8282 53.1057 14.0079 53.305 14.1123 53.5606C14.2184 53.8233 14.273 54.2313 14.273 54.7746V59.8096H15.9371V54.7212C15.9371 54.0825 15.9098 53.6258 15.8541 53.3637C15.7663 52.9604 15.6086 52.6046 15.3856 52.3063Z" fill="#534741"/>
<path d="M22.8267 58.3637C22.2538 58.4432 21.946 58.4331 21.7681 58.3317C21.6726 58.2771 21.6061 58.2066 21.5652 58.1146C21.5344 58.0482 21.4976 57.8721 21.4976 57.4059V52.7795H22.9506V51.4932H21.4976V48.5848L19.843 49.5337V51.4938H18.7832V52.7801H19.843V57.3294C19.843 58.1775 19.9041 58.7231 20.0292 58.9959C20.1561 59.2747 20.3779 59.5006 20.6863 59.6679C20.99 59.8339 21.4176 59.9175 21.9584 59.9175C22.2864 59.9175 22.6612 59.876 23.0716 59.7936L23.1766 59.7728L22.9316 58.3507L22.8267 58.3637Z" fill="#534741"/>
<path d="M29.3977 51.3105C28.1961 51.3105 27.2028 51.7008 26.4454 52.4717C25.6899 53.2421 25.3074 54.3351 25.3074 55.7211C25.3074 57.062 25.6869 58.1206 26.4342 58.8679C27.1826 59.6151 28.2068 59.9941 29.4777 59.9941C30.4859 59.9941 31.3293 59.7563 31.9822 59.2871C32.6364 58.8169 33.09 58.1485 33.3308 57.298L33.3664 57.1741L31.6602 56.9748L31.6299 57.0549C31.4206 57.6106 31.1347 58.0186 30.7795 58.2701C30.426 58.5197 29.9907 58.6466 29.486 58.6466C28.8082 58.6466 28.2341 58.4183 27.781 57.9688C27.3481 57.5376 27.0942 56.9143 27.0272 56.1119H33.3729L33.3759 56.0064C33.3812 55.8421 33.383 55.7193 33.383 55.6369C33.383 54.2764 33.0088 53.203 32.2687 52.4486C31.5279 51.6931 30.5618 51.3105 29.3977 51.3105ZM27.1091 54.7645C27.1731 54.1436 27.4109 53.6389 27.8142 53.2611C28.243 52.8614 28.7815 52.6574 29.4131 52.6574C30.1099 52.6574 30.684 52.9124 31.1199 53.4135C31.3862 53.716 31.5564 54.1697 31.627 54.7639L27.1091 54.7645Z" fill="#534741"/>
<path d="M39.8143 51.3105C39.4579 51.3105 39.1258 51.409 38.8281 51.6023C38.5903 51.7571 38.3436 52.0335 38.0773 52.4409V51.4932H36.5579V59.8096H38.222V55.4602C38.222 54.8944 38.302 54.3672 38.4574 53.8939C38.5571 53.5968 38.7243 53.3625 38.9544 53.1976C39.4561 52.8377 40.1162 52.875 40.7466 53.2303L40.8557 53.2919L41.4351 51.8135L41.3539 51.7666C40.8362 51.4642 40.3178 51.3105 39.8143 51.3105Z" fill="#534741"/>
<path d="M45.365 51.4932H43.7009V59.8102H45.365V51.4932Z" fill="#534741"/>
<path d="M45.365 48.4128H43.7009V50.2098H45.365V48.4128Z" fill="#534741"/>
<path d="M52.5565 51.3105C51.4819 51.3105 50.5573 51.6207 49.8065 52.2357C48.9068 52.9753 48.4502 54.1246 48.4502 55.6523C48.4502 57.0436 48.8321 58.1271 49.5871 58.872C50.3409 59.6163 51.3396 59.9947 52.5565 59.9947C53.3156 59.9947 54.0267 59.8233 54.6666 59.4864C55.3107 59.1478 55.8094 58.6644 56.1481 58.0506C56.4855 57.4416 56.6557 56.5959 56.6557 55.5384C56.6557 54.2284 56.2702 53.1846 55.5076 52.4374C54.7449 51.6901 53.7527 51.3105 52.5565 51.3105ZM52.5565 58.6461C51.8703 58.6461 51.2921 58.397 50.8396 57.9071C50.3841 57.4149 50.154 56.6563 50.154 55.6517C50.154 54.6471 50.3841 53.8903 50.8384 53.4011C51.2915 52.9124 51.8698 52.6651 52.5559 52.6651C53.2332 52.6651 53.8073 52.9148 54.2621 53.4046C54.7194 53.8969 54.9519 54.6382 54.9519 55.606C54.9519 56.6344 54.7206 57.4078 54.2651 57.9035C53.8138 58.3958 53.2391 58.6461 52.5565 58.6461Z" fill="#534741"/>
<path d="M63.013 51.3105C62.6565 51.3105 62.3244 51.409 62.0267 51.6023C61.7895 51.7571 61.5422 52.0335 61.2759 52.4409V51.4932H59.7571V59.8096H61.4212V55.4602C61.4212 54.8944 61.5013 54.3672 61.6566 53.8939C61.7563 53.5968 61.9241 53.3625 62.1542 53.1976C62.6547 52.8377 63.3154 52.875 63.9464 53.2303L64.0561 53.2919L64.6356 51.8135L64.5549 51.7666C64.0348 51.4642 63.5171 51.3105 63.013 51.3105Z" fill="#534741"/>
<path d="M83.5584 53.7136C83.0833 53.5078 82.1997 53.2664 80.9335 52.9942C79.6917 52.7268 78.9183 52.467 78.6342 52.2203C78.3525 51.9807 78.2149 51.6842 78.2149 51.3129C78.2149 50.8824 78.4124 50.5236 78.8175 50.214C79.2273 49.9026 79.898 49.7437 80.8108 49.7437C81.6855 49.7437 82.3521 49.9186 82.7933 50.2626C83.2304 50.603 83.4902 51.1172 83.5661 51.7897L83.5785 51.8947L85.2824 51.7731L85.2782 51.6664C85.2498 50.9915 85.0487 50.3794 84.681 49.8469C84.3122 49.3143 83.7778 48.9039 83.0946 48.6293C82.4173 48.3589 81.6268 48.2213 80.7461 48.2213C79.9449 48.2213 79.2048 48.3518 78.5471 48.6098C77.8817 48.8707 77.3687 49.2603 77.0194 49.7662C76.6712 50.2733 76.4945 50.826 76.4945 51.4108C76.4945 51.9433 76.6398 52.4326 76.9256 52.8626C77.2103 53.2913 77.6468 53.6537 78.2238 53.9401C78.6674 54.1649 79.4194 54.3956 80.5213 54.6465C81.5948 54.892 82.2946 55.0747 82.6036 55.1885C83.0744 55.3587 83.4143 55.5693 83.6141 55.8142C83.814 56.0585 83.9113 56.3367 83.9113 56.6641C83.9113 56.9831 83.8063 57.2832 83.6005 57.5548C83.3923 57.8294 83.0673 58.0488 82.6344 58.209C82.1932 58.3709 81.6766 58.4539 81.0996 58.4539C80.449 58.4539 79.8548 58.3442 79.3352 58.1295C78.8211 57.9184 78.4385 57.6378 78.1989 57.2986C77.9558 56.957 77.7998 56.511 77.7322 55.9725L77.7198 55.8682L76.042 56.0069L76.045 56.1107C76.0675 56.8758 76.2911 57.572 76.711 58.1787C77.1303 58.7866 77.7168 59.248 78.4528 59.5493C79.1834 59.8482 80.0979 60 81.1713 60C82.023 60 82.7999 59.8494 83.4831 59.5522C84.171 59.2527 84.7059 58.8263 85.0748 58.2855C85.4437 57.744 85.6311 57.1575 85.6311 56.5425C85.6311 55.9227 85.4597 55.3664 85.1223 54.8896C84.7842 54.4164 84.2582 54.0208 83.5584 53.7136Z" fill="#534741"/>
<path d="M94.433 55.9411C94.433 56.613 94.3565 57.1307 94.2041 57.4795C94.0576 57.8181 93.8026 58.0909 93.445 58.2902C93.0838 58.4906 92.6912 58.5926 92.279 58.5926C91.8704 58.5926 91.5246 58.4948 91.2501 58.3032C90.9761 58.1111 90.8011 57.8537 90.7151 57.518C90.6594 57.2784 90.6297 56.7986 90.6297 56.0947V51.4938H88.9668V56.6207C88.9668 57.2185 88.9964 57.6461 89.0575 57.9248C89.1465 58.3406 89.3036 58.6976 89.5231 58.9858C89.7455 59.2776 90.0877 59.5214 90.5396 59.7111C90.9873 59.8985 91.4754 59.994 91.9902 59.994C93.0524 59.994 93.9236 59.6026 94.5854 58.8281V59.8108H96.0959V51.4932H94.433V55.9411Z" fill="#534741"/>
<path d="M103.024 51.3105C102.667 51.3105 102.335 51.409 102.038 51.6023C101.8 51.7571 101.553 52.0335 101.287 52.4409V51.4932H99.7673V59.8096H101.431V55.4602C101.431 54.8944 101.512 54.3672 101.667 53.8939C101.767 53.5968 101.934 53.3625 102.164 53.1976C102.664 52.8377 103.326 52.875 103.956 53.2303L104.066 53.2919L104.645 51.8135L104.564 51.7666C104.046 51.4642 103.527 51.3105 103.024 51.3105Z" fill="#534741"/>
<path d="M108.186 48.5701C107.816 48.8032 107.555 49.1115 107.408 49.4893C107.299 49.7675 107.248 50.1773 107.248 50.7413V51.4933H105.971V52.7796H107.248V59.8097H108.904V52.7796H110.565V51.4933H108.904V50.8551C108.904 50.3997 108.984 50.0907 109.143 49.9347C109.303 49.7775 109.591 49.6993 109.998 49.6993C110.255 49.6993 110.536 49.7242 110.83 49.7746L110.937 49.7918L111.192 48.3809L111.085 48.3613C109.803 48.1241 108.782 48.1941 108.186 48.5701Z" fill="#534741"/>
<path d="M120.327 58.7083C120.266 58.3803 120.235 57.5732 120.235 56.3076V54.4769C120.235 53.8536 120.211 53.4325 120.161 53.1876C120.073 52.7961 119.913 52.4658 119.687 52.2055C119.461 51.9457 119.108 51.7286 118.637 51.5602C118.172 51.3947 117.562 51.3099 116.827 51.3099C116.085 51.3099 115.422 51.4078 114.857 51.6017C114.284 51.7974 113.839 52.0839 113.533 52.451C113.229 52.8157 113.007 53.3002 112.876 53.8897L112.849 54.0066L114.476 54.2171L114.501 54.1246C114.648 53.5778 114.876 53.1947 115.177 52.9847C115.48 52.7724 115.965 52.6645 116.618 52.6645C117.316 52.6645 117.845 52.8127 118.194 53.1045C118.438 53.3103 118.564 53.6798 118.564 54.2023C118.564 54.2456 118.561 54.3381 118.557 54.481C118.013 54.6512 117.178 54.8001 116.075 54.9252C115.49 54.9928 115.066 55.061 114.776 55.134C114.381 55.2383 114.021 55.3943 113.705 55.5983C113.384 55.8047 113.122 56.0823 112.923 56.4244C112.724 56.7672 112.624 57.1509 112.624 57.5655C112.624 58.2718 112.889 58.8613 113.416 59.315C113.936 59.7651 114.687 59.9941 115.646 59.9941C116.223 59.9941 116.773 59.9015 117.276 59.7201C117.733 59.5564 118.213 59.283 118.703 58.907C118.754 59.2207 118.846 59.5048 118.977 59.7521L119.008 59.8108H120.774L120.677 59.6465C120.502 59.3464 120.384 59.0315 120.327 58.7083ZM118.555 55.7928V56.1392C118.555 56.7239 118.481 57.1693 118.334 57.4629C118.141 57.843 117.835 58.1461 117.424 58.3649C117.009 58.5867 116.528 58.6988 115.991 58.6988C115.458 58.6988 115.051 58.5844 114.782 58.3584C114.514 58.1336 114.383 57.8614 114.383 57.5275C114.383 57.3105 114.443 57.1171 114.565 56.9374C114.686 56.7601 114.862 56.6237 115.086 56.5306C115.322 56.4333 115.738 56.3432 116.32 56.2631C117.277 56.1333 118.027 55.9761 118.555 55.7928Z" fill="#534741"/>
<path d="M129.463 56.7186C129.365 57.3751 129.135 57.8662 128.778 58.1769C128.42 58.4871 127.965 58.6461 127.429 58.6461C126.749 58.6461 126.214 58.4154 125.792 57.9427C125.374 57.4718 125.162 56.6985 125.162 55.6446C125.162 54.6056 125.382 53.8387 125.816 53.3655C126.253 52.8887 126.808 52.6574 127.509 52.6574C127.969 52.6574 128.35 52.7849 128.672 53.0452C128.992 53.3026 129.218 53.6958 129.345 54.2141L129.368 54.3108L130.986 54.073L130.963 53.9609C130.794 53.12 130.4 52.4599 129.791 51.9997C129.185 51.5424 128.399 51.3105 127.453 51.3105C126.706 51.3105 126.005 51.4796 125.368 51.8146C124.725 52.1527 124.24 52.6669 123.926 53.3412C123.616 54.0084 123.459 54.7959 123.459 55.682C123.459 57.0578 123.827 58.1319 124.553 58.8744C125.281 59.6169 126.253 59.9941 127.446 59.9941C128.398 59.9941 129.214 59.7195 129.87 59.1798C130.528 58.6389 130.942 57.8816 131.101 56.9286L131.12 56.8165L129.479 56.6131L129.463 56.7186Z" fill="#534741"/>
<path d="M137.372 51.3105C136.171 51.3105 135.177 51.7008 134.42 52.4717C133.664 53.2421 133.281 54.3351 133.281 55.7211C133.281 57.062 133.661 58.1206 134.408 58.8679C135.157 59.6151 136.18 59.9941 137.451 59.9941C138.459 59.9941 139.303 59.7563 139.956 59.2871C140.61 58.8169 141.064 58.1485 141.304 57.298L141.341 57.1741L139.634 56.9748L139.603 57.0549C139.394 57.6106 139.108 58.0186 138.753 58.2701C138.4 58.5197 137.964 58.6466 137.46 58.6466C136.781 58.6466 136.208 58.4183 135.755 57.9688C135.322 57.5376 135.068 56.9143 135.001 56.1119H141.346L141.349 56.0064C141.355 55.8421 141.357 55.7193 141.357 55.6369C141.357 54.2764 140.982 53.203 140.243 52.4486C139.502 51.6931 138.536 51.3105 137.372 51.3105ZM135.083 54.7645C135.147 54.1436 135.385 53.6389 135.788 53.2611C136.217 52.8614 136.756 52.6574 137.387 52.6574C138.084 52.6574 138.658 52.9124 139.094 53.4135C139.36 53.716 139.531 54.1697 139.6 54.7639L135.083 54.7645Z" fill="#534741"/>
<path d="M161.215 53.7136C160.739 53.5078 159.856 53.2664 158.59 52.9942C157.348 52.7268 156.574 52.467 156.29 52.2203C156.009 51.9807 155.871 51.6842 155.871 51.3129C155.871 50.8824 156.068 50.5236 156.473 50.214C156.883 49.9026 157.554 49.7437 158.467 49.7437C159.342 49.7437 160.008 49.9186 160.449 50.2626C160.886 50.603 161.147 51.1172 161.222 51.7897L161.235 51.8947L162.938 51.7731L162.934 51.6664C162.906 50.9915 162.705 50.3794 162.337 49.8469C161.968 49.3143 161.434 48.9039 160.751 48.6293C160.073 48.3589 159.283 48.2213 158.402 48.2213C157.601 48.2213 156.861 48.3518 156.203 48.6098C155.538 48.8707 155.025 49.2603 154.675 49.7662C154.327 50.2733 154.15 50.826 154.15 51.4108C154.15 51.9433 154.296 52.4326 154.582 52.8626C154.867 53.2913 155.303 53.6537 155.88 53.9401C156.323 54.1649 157.075 54.3956 158.177 54.6465C159.251 54.892 159.951 55.0747 160.26 55.1885C160.731 55.3587 161.07 55.5693 161.27 55.8142C161.47 56.0585 161.567 56.3367 161.567 56.6641C161.567 56.9831 161.462 57.2832 161.256 57.5548C161.048 57.8294 160.724 58.0488 160.29 58.209C159.849 58.3709 159.333 58.4539 158.756 58.4539C158.104 58.4539 157.511 58.3442 156.991 58.1295C156.477 57.9184 156.095 57.6378 155.855 57.2986C155.612 56.957 155.455 56.511 155.388 55.9725L155.376 55.8682L153.698 56.0069L153.701 56.1107C153.724 56.8758 153.947 57.572 154.367 58.1787C154.786 58.7866 155.373 59.248 156.109 59.5493C156.839 59.8482 157.754 60 158.827 60C159.68 60 160.456 59.8494 161.139 59.5522C161.826 59.2527 162.362 58.8263 162.731 58.2855C163.1 57.744 163.287 57.1575 163.287 56.5425C163.287 55.9227 163.116 55.3664 162.779 54.8896C162.44 54.4164 161.915 54.0208 161.215 53.7136Z" fill="#534741"/>
<path d="M170.223 51.3105C169.148 51.3105 168.223 51.6207 167.472 52.2357C166.572 52.9753 166.116 54.1246 166.116 55.6523C166.116 57.0436 166.498 58.1271 167.253 58.872C168.007 59.6163 169.005 59.9947 170.223 59.9947C170.981 59.9947 171.692 59.8233 172.333 59.4864C172.978 59.1478 173.476 58.6644 173.814 58.0506C174.151 57.4416 174.321 56.5959 174.321 55.5384C174.321 54.2284 173.936 53.1846 173.173 52.4374C172.411 51.6901 171.42 51.3105 170.223 51.3105ZM170.223 58.6461C169.536 58.6461 168.958 58.397 168.506 57.9071C168.05 57.4149 167.82 56.6563 167.82 55.6517C167.82 54.6471 168.051 53.8903 168.505 53.4011C168.958 52.9124 169.535 52.6651 170.222 52.6651C170.899 52.6651 171.473 52.9148 171.928 53.4046C172.386 53.8969 172.618 54.6382 172.618 55.606C172.618 56.6344 172.386 57.4078 171.931 57.9035C171.48 58.3958 170.905 58.6461 170.223 58.6461Z" fill="#534741"/>
<path d="M179.072 48.4128H177.409V59.8108H179.072V48.4128Z" fill="#534741"/>
<path d="M188.17 55.9411C188.17 56.613 188.093 57.1307 187.941 57.4795C187.795 57.8181 187.539 58.0909 187.182 58.2902C186.821 58.4906 186.428 58.5926 186.016 58.5926C185.607 58.5926 185.261 58.4948 184.987 58.3032C184.712 58.1111 184.538 57.8537 184.452 57.518C184.396 57.2784 184.367 56.7986 184.367 56.0947V51.4938H182.704V56.6207C182.704 57.2185 182.733 57.6461 182.794 57.9248C182.883 58.3406 183.039 58.6976 183.259 58.9858C183.482 59.2776 183.824 59.5214 184.276 59.7111C184.724 59.8985 185.212 59.994 185.726 59.994C186.788 59.994 187.66 59.6026 188.322 58.8281V59.8108H189.833V51.4932H188.169V55.9411H188.17Z" fill="#534741"/>
<path d="M196.77 58.3637C196.197 58.4432 195.891 58.4331 195.712 58.3317C195.616 58.2771 195.55 58.2066 195.509 58.1146C195.479 58.0482 195.442 57.8721 195.442 57.4059V52.7795H196.895V51.4932H195.442V48.5848L193.787 49.5337V51.4938H192.728V52.7801H193.787V57.3294C193.787 58.1775 193.848 58.7231 193.973 58.9959C194.1 59.2747 194.322 59.5006 194.63 59.6679C194.934 59.8339 195.361 59.9175 195.902 59.9175C196.23 59.9175 196.605 59.876 197.015 59.7936L197.121 59.7728L196.876 58.3507L196.77 58.3637Z" fill="#534741"/>
<path d="M201.405 48.4128H199.74V50.2098H201.405V48.4128Z" fill="#534741"/>
<path d="M201.405 51.4932H199.74V59.8102H201.405V51.4932Z" fill="#534741"/>
<path d="M208.597 51.3105C207.522 51.3105 206.598 51.6207 205.847 52.2357C204.947 52.9753 204.491 54.1246 204.491 55.6523C204.491 57.0436 204.873 58.1271 205.627 58.872C206.381 59.6163 207.38 59.9947 208.597 59.9947C209.356 59.9947 210.067 59.8233 210.707 59.4864C211.352 59.1478 211.85 58.6644 212.189 58.0506C212.525 57.4416 212.696 56.5959 212.696 55.5384C212.696 54.2284 212.31 53.1846 211.547 52.4374C210.785 51.6901 209.794 51.3105 208.597 51.3105ZM208.597 58.6461C207.911 58.6461 207.333 58.397 206.88 57.9071C206.425 57.4149 206.195 56.6563 206.195 55.6517C206.195 54.6471 206.425 53.8903 206.879 53.4011C207.333 52.9124 207.91 52.6651 208.596 52.6651C209.274 52.6651 209.847 52.9148 210.303 53.4046C210.76 53.8969 210.992 54.6382 210.992 55.606C210.992 56.6344 210.761 57.4078 210.306 57.9035C209.855 58.3958 209.28 58.6461 208.597 58.6461Z" fill="#534741"/>
<path d="M222.409 52.3063C222.184 52.0074 221.842 51.763 221.395 51.581C220.953 51.4013 220.462 51.3099 219.938 51.3099C218.842 51.3099 217.969 51.6877 217.334 52.4332V51.4932H215.815V59.8096H217.478V55.2775C217.478 54.2782 217.69 53.5968 218.11 53.2498C218.532 52.897 219.045 52.7184 219.632 52.7184C219.995 52.7184 220.316 52.7973 220.584 52.9515C220.851 53.1057 221.031 53.305 221.135 53.5606C221.241 53.8233 221.296 54.2313 221.296 54.7746V59.8096H222.96V54.7212C222.96 54.0825 222.933 53.6258 222.877 53.3637C222.79 52.9604 222.632 52.6046 222.409 52.3063Z" fill="#534741"/>
<path d="M232.956 56.0823C232.715 55.752 232.378 55.4975 231.956 55.325C231.551 55.1595 230.825 54.9424 229.804 54.6839C228.937 54.4597 228.637 54.3707 228.539 54.3369C228.306 54.248 228.136 54.1365 228.032 54.003C227.929 53.8803 227.88 53.7456 227.88 53.5926C227.88 53.3471 228.004 53.1366 228.261 52.9492C228.523 52.7558 228.98 52.6574 229.617 52.6574C230.152 52.6574 230.568 52.7689 230.854 52.9865C231.141 53.2042 231.311 53.5007 231.37 53.8921L231.386 53.9977L233.019 53.7866L233 53.6739C232.905 53.1348 232.73 52.6965 232.48 52.3721C232.227 52.043 231.834 51.7815 231.31 51.5923C230.795 51.4061 230.189 51.3112 229.511 51.3112C229.059 51.3112 228.629 51.3681 228.234 51.479C227.837 51.5905 227.517 51.7304 227.283 51.8941C226.972 52.1053 226.722 52.3757 226.539 52.6971C226.357 53.0203 226.264 53.3762 226.264 53.7534C226.264 54.1685 226.376 54.5546 226.598 54.8991C226.821 55.2437 227.15 55.5165 227.576 55.7098C227.992 55.8984 228.741 56.122 229.8 56.3764C230.572 56.5615 231.057 56.7127 231.244 56.8278C231.496 56.9867 231.618 57.1949 231.618 57.4671C231.618 57.7796 231.474 58.0477 231.178 58.2849C230.877 58.5245 230.404 58.6461 229.769 58.6461C229.139 58.6461 228.645 58.5073 228.3 58.2345C227.957 57.9641 227.745 57.5667 227.67 57.0549L227.654 56.9458L226.005 57.1919L226.026 57.3034C226.191 58.187 226.579 58.8637 227.178 59.3162C227.777 59.7658 228.651 59.9941 229.777 59.9941C230.458 59.9941 231.077 59.8796 231.618 59.6531C232.166 59.4247 232.59 59.0962 232.882 58.6769C233.174 58.2558 233.322 57.7998 233.322 57.3224C233.321 56.8319 233.198 56.4156 232.956 56.0823Z" fill="#534741"/>
</svg>
